<svg width="1366" height="768" viewBox="0 0 1366 768" fill="none" xmlns="http://www.w3.org/2000/svg">
<rect width="1366" height="768" fill="#D9D9D9"/>
<path d="M539.591 363.682C539.227 360.015 537.667 357.167 534.909 355.136C532.152 353.106 528.409 352.091 523.682 352.091C520.47 352.091 517.758 352.545 515.545 353.455C513.333 354.333 511.636 355.561 510.455 357.136C509.303 358.712 508.727 360.5 508.727 362.5C508.667 364.167 509.015 365.621 509.773 366.864C510.561 368.106 511.636 369.182 513 370.091C514.364 370.97 515.939 371.742 517.727 372.409C519.515 373.045 521.424 373.591 523.455 374.045L531.818 376.045C535.879 376.955 539.606 378.167 543 379.682C546.394 381.197 549.333 383.061 551.818 385.273C554.303 387.485 556.227 390.091 557.591 393.091C558.985 396.091 559.697 399.53 559.727 403.409C559.697 409.106 558.242 414.045 555.364 418.227C552.515 422.379 548.394 425.606 543 427.909C537.636 430.182 531.167 431.318 523.591 431.318C516.076 431.318 509.53 430.167 503.955 427.864C498.409 425.561 494.076 422.152 490.955 417.636C487.864 413.091 486.242 407.47 486.091 400.773H505.136C505.348 403.894 506.242 406.5 507.818 408.591C509.424 410.652 511.561 412.212 514.227 413.273C516.924 414.303 519.97 414.818 523.364 414.818C526.697 414.818 529.591 414.333 532.045 413.364C534.53 412.394 536.455 411.045 537.818 409.318C539.182 407.591 539.864 405.606 539.864 403.364C539.864 401.273 539.242 399.515 538 398.091C536.788 396.667 535 395.455 532.636 394.455C530.303 393.455 527.439 392.545 524.045 391.727L513.909 389.182C506.061 387.273 499.864 384.288 495.318 380.227C490.773 376.167 488.515 370.697 488.545 363.818C488.515 358.182 490.015 353.258 493.045 349.045C496.106 344.833 500.303 341.545 505.636 339.182C510.97 336.818 517.03 335.636 523.818 335.636C530.727 335.636 536.758 336.818 541.909 339.182C547.091 341.545 551.121 344.833 554 349.045C556.879 353.258 558.364 358.136 558.455 363.682H539.591ZM591.966 336.909V430H572.602V336.909H591.966ZM607.477 430V360.182H626.841V430H607.477ZM617.205 351.182C614.326 351.182 611.856 350.227 609.795 348.318C607.765 346.379 606.75 344.061 606.75 341.364C606.75 338.697 607.765 336.409 609.795 334.5C611.856 332.561 614.326 331.591 617.205 331.591C620.083 331.591 622.538 332.561 624.568 334.5C626.629 336.409 627.659 338.697 627.659 341.364C627.659 344.061 626.629 346.379 624.568 348.318C622.538 350.227 620.083 351.182 617.205 351.182ZM668.08 431.136C662.777 431.136 657.973 429.773 653.67 427.045C649.398 424.288 646.004 420.242 643.489 414.909C641.004 409.545 639.761 402.97 639.761 395.182C639.761 387.182 641.049 380.53 643.625 375.227C646.201 369.894 649.625 365.909 653.898 363.273C658.201 360.606 662.913 359.273 668.034 359.273C671.943 359.273 675.201 359.939 677.807 361.273C680.443 362.576 682.564 364.212 684.17 366.182C685.807 368.121 687.049 370.03 687.898 371.909H688.489V336.909H707.807V430H688.716V418.818H687.898C686.989 420.758 685.701 422.682 684.034 424.591C682.398 426.47 680.261 428.03 677.625 429.273C675.019 430.515 671.837 431.136 668.08 431.136ZM674.216 415.727C677.337 415.727 679.973 414.879 682.125 413.182C684.307 411.455 685.973 409.045 687.125 405.955C688.307 402.864 688.898 399.242 688.898 395.091C688.898 390.939 688.322 387.333 687.17 384.273C686.019 381.212 684.352 378.848 682.17 377.182C679.989 375.515 677.337 374.682 674.216 374.682C671.034 374.682 668.352 375.545 666.17 377.273C663.989 379 662.337 381.394 661.216 384.455C660.095 387.515 659.534 391.061 659.534 395.091C659.534 399.152 660.095 402.742 661.216 405.864C662.367 408.955 664.019 411.379 666.17 413.136C668.352 414.864 671.034 415.727 674.216 415.727ZM755.545 431.364C748.364 431.364 742.182 429.909 737 427C731.848 424.061 727.879 419.909 725.091 414.545C722.303 409.152 720.909 402.773 720.909 395.409C720.909 388.227 722.303 381.924 725.091 376.5C727.879 371.076 731.803 366.848 736.864 363.818C741.955 360.788 747.924 359.273 754.773 359.273C759.379 359.273 763.667 360.015 767.636 361.5C771.636 362.955 775.121 365.152 778.091 368.091C781.091 371.03 783.424 374.727 785.091 379.182C786.758 383.606 787.591 388.788 787.591 394.727V400.045H728.636V388.045H769.364C769.364 385.258 768.758 382.788 767.545 380.636C766.333 378.485 764.652 376.803 762.5 375.591C760.379 374.348 757.909 373.727 755.091 373.727C752.152 373.727 749.545 374.409 747.273 375.773C745.03 377.106 743.273 378.909 742 381.182C740.727 383.424 740.076 385.924 740.045 388.682V400.091C740.045 403.545 740.682 406.53 741.955 409.045C743.258 411.561 745.091 413.5 747.455 414.864C749.818 416.227 752.621 416.909 755.864 416.909C758.015 416.909 759.985 416.606 761.773 416C763.561 415.394 765.091 414.485 766.364 413.273C767.636 412.061 768.606 410.576 769.273 408.818L787.182 410C786.273 414.303 784.409 418.061 781.591 421.273C778.803 424.455 775.197 426.939 770.773 428.727C766.379 430.485 761.303 431.364 755.545 431.364ZM828.261 413.636V398.136L867.125 336.909H880.489V358.364H872.58L848.08 397.136V397.864H903.307V413.636H828.261ZM872.943 430V408.909L873.307 402.045V336.909H891.761V430H872.943Z" fill="black"/>
</svg>
